<?xml version="1.0" standalone="no"?><svg xmlns="http://www.w3.org/2000/svg" viewBox="0 0 1440 320"><path fill="#0099ff" fill-opacity="1" d="M0,64L0,160L36.9,160L36.9,160L73.8,160L73.8,320L110.8,320L110.8,192L147.7,192L147.7,192L184.6,192L184.6,128L221.5,128L221.5,64L258.5,64L258.5,160L295.4,160L295.4,96L332.3,96L332.3,64L369.2,64L369.2,64L406.2,64L406.2,192L443.1,192L443.1,288L480,288L480,64L516.9,64L516.9,32L553.8,32L553.8,288L590.8,288L590.8,64L627.7,64L627.7,96L664.6,96L664.6,192L701.5,192L701.5,224L738.5,224L738.5,288L775.4,288L775.4,96L812.3,96L812.3,256L849.2,256L849.2,224L886.2,224L886.2,256L923.1,256L923.1,320L960,320L960,288L996.9,288L996.9,0L1033.8,0L1033.8,0L1070.8,0L1070.8,160L1107.7,160L1107.7,256L1144.6,256L1144.6,256L1181.5,256L1181.5,192L1218.5,192L1218.5,128L1255.4,128L1255.4,224L1292.3,224L1292.3,96L1329.2,96L1329.2,288L1366.2,288L1366.2,32L1403.1,32L1403.1,64L1440,64L1440,320L1403.1,320L1403.1,320L1366.2,320L1366.2,320L1329.2,320L1329.2,320L1292.3,320L1292.3,320L1255.4,320L1255.4,320L1218.5,320L1218.5,320L1181.5,320L1181.5,320L1144.6,320L1144.6,320L1107.7,320L1107.7,320L1070.8,320L1070.8,320L1033.8,320L1033.8,320L996.9,320L996.9,320L960,320L960,320L923.1,320L923.1,320L886.2,320L886.2,320L849.2,320L849.2,320L812.3,320L812.3,320L775.4,320L775.4,320L738.5,320L738.5,320L701.5,320L701.5,320L664.6,320L664.6,320L627.7,320L627.7,320L590.8,320L590.8,320L553.8,320L553.8,320L516.9,320L516.9,320L480,320L480,320L443.1,320L443.1,320L406.2,320L406.2,320L369.2,320L369.2,320L332.3,320L332.3,320L295.4,320L295.4,320L258.5,320L258.5,320L221.5,320L221.5,320L184.6,320L184.6,320L147.7,320L147.7,320L110.8,320L110.8,320L73.8,320L73.8,320L36.9,320L36.9,320L0,320L0,320Z"></path></svg>